<svg width="58" height="64" viewBox="0 0 58 64" fill="none" xmlns="http://www.w3.org/2000/svg">
<path fill-rule="evenodd" clip-rule="evenodd" d="M42.0305 25.005C43.9624 26.9304 48.0859 28.098 49.6592 28.3897C48.1138 30.0401 45.5815 29.6496 44.4607 29.4767C43.9098 29.3918 43.7 29.3594 44.116 29.6479C44.9807 30.2474 45.9743 30.1827 46.9731 30.1176C47.4323 30.0877 47.8926 30.0577 48.342 30.0921C49.769 30.2015 50.8667 31.2342 50.4276 31.6718C50.2461 31.8527 49.3796 31.8548 48.3248 31.8574C46.8284 31.8611 44.9529 31.8656 44.116 32.3829C43.7257 32.6241 43.1468 33.0156 42.4755 33.4695C40.692 34.6754 38.2572 36.3218 36.9812 36.759L36.9297 36.7766C35.1865 37.3736 33.2454 38.0385 32.865 40.2051C32.6469 41.4473 32.871 42.2509 33.0754 42.9837C33.231 43.5418 33.3752 44.0588 33.3041 44.6973C33.1394 46.1742 29.6818 46.7692 29.572 46.6051C29.5253 46.5353 29.6675 46.4171 29.8335 46.2791C30.0576 46.0928 30.3252 45.8704 30.2306 45.6819C30.144 45.5092 29.4952 45.5145 28.8917 45.5195C28.3483 45.524 27.8417 45.5281 27.8157 45.4017C27.7871 45.2624 28.1774 45.0597 28.5492 44.8668C28.8894 44.6902 29.214 44.5216 29.1878 44.4171C29.1661 44.3306 28.9517 44.2746 28.7468 44.221C28.5368 44.1661 28.3368 44.1139 28.3646 44.0342C28.3902 43.9608 28.9793 43.9216 29.6274 43.8785C30.3689 43.8292 31.1877 43.7747 31.3283 43.6579C31.6576 43.3844 32.0966 42.0716 30.6148 39.9383C29.4293 38.2316 26.8279 37.805 25.6753 37.805L27.5962 38.6188C27.5719 38.9276 27.5274 39.3481 27.4789 39.8073C27.3812 40.7311 27.2669 41.8115 27.2669 42.4545C27.2669 43.0238 27.3897 43.1524 27.4843 43.2515C27.5897 43.3618 27.66 43.4355 27.4865 44.0409C27.1572 45.1896 22.7665 45.7913 22.7116 45.1349C22.684 44.805 23.0585 44.6961 23.389 44.6001C23.7162 44.505 24.0004 44.4224 23.8093 44.1503C23.6028 43.8562 23.1108 43.8922 22.7255 43.9203C22.394 43.9446 22.1415 43.963 22.2177 43.7607C22.3197 43.4896 22.9484 43.41 23.425 43.3496C23.7177 43.3126 23.9531 43.2828 23.9739 43.2203C24.0082 43.1179 23.8498 43.0768 23.6325 43.0204C23.5018 42.9865 23.3498 42.9471 23.2056 42.8855C22.8982 42.7542 23.2056 42.6253 23.48 42.6733C23.7544 42.7214 25.7851 42.6551 25.84 42.3451C26.1034 39.1506 25.0167 38.2359 24.0288 37.5795C23.787 37.4188 23.4135 37.2696 22.9295 37.0763C21.4363 36.4799 18.8903 35.463 15.9061 32.3896C11.9875 28.3538 13.4918 25.1401 15.3497 21.171C15.8338 20.1369 16.3418 19.0516 16.7842 17.8872C18.4965 13.3798 17.6623 10.9219 17.1135 9.73675C15.2266 9.78376 14.2575 8.80711 13.6856 8.23071C13.5921 8.13648 13.5092 8.05294 13.4347 7.98632C10.6685 7.98632 9.53795 7.54872 9.48472 6.94701C9.43148 6.3453 11.9545 5.96239 11.9545 5.96239C11.9545 5.96239 12.7311 5.68747 13.0505 5.57949C13.0505 5.17683 13.4087 4.95138 13.6765 4.78289C13.787 4.71333 13.8821 4.65348 13.9302 4.59487C13.0521 4.37607 12.9972 3.61026 13.2168 3.44615C13.3924 3.31487 14.1499 3.61693 14.4792 3.83574C14.8304 2.74172 14.5523 1.19186 14.3694 0.55368C16.6964 -0.627858 18.3027 0.35311 18.8149 0.991287C17.7182 3.80213 18.1124 3.98773 18.4368 4.14052C18.4533 4.14828 18.4697 4.15598 18.4856 4.16392C18.6161 4.22893 18.8412 4.19847 19.0622 4.16858C19.399 4.12302 19.7261 4.07878 19.693 4.37607C19.6584 4.68612 18.4307 4.97778 18.4307 4.97778C18.4307 4.97778 19.712 5.59936 21.0651 8.69743C22.5836 12.1744 22.1456 16.0124 21.8522 18.5834C21.6748 20.1381 21.5503 21.2295 21.9432 21.4974C22.9163 22.161 24.7973 21.3697 25.9364 20.8905C26.018 20.8562 26.0959 20.8234 26.1693 20.793C32.3711 19.5349 39.6156 22.5981 42.0305 25.005ZM21.3395 13.2923C21.2078 8.65367 19.3089 6.21766 18.3758 5.57949L18.1014 6.8376C18.6283 7.45025 19.382 8.91624 19.693 9.57265H20.1321C20.7029 10.5791 21.1749 12.4718 21.3395 13.2923ZM24.3032 22.6461C24.9252 22.245 26.9925 21.1692 30.505 21.388C34.0175 21.6068 37.4203 22.9197 40.1644 24.8889L34.5115 23.7949L33.4138 24.3419C31.8954 23.4849 28.0792 22.121 24.3032 22.6461ZM18.2112 1.09402C18.0356 1.26906 17.4428 2.57094 17.388 3.82906L16.7294 3.71966L16.9489 0.65641C17.6624 0.711111 18.0831 0.984615 18.2112 1.09402ZM20.6035 22.069C20.3162 22.203 19.8744 22.409 19.1991 22.865C19.7296 21.5339 21.3944 15.535 21.3944 15.535C21.3944 15.535 21.12 20.5128 21.12 21.3333C21.12 21.8282 21.0402 21.8654 20.6035 22.069ZM12.337 6.32123C12.337 6.18723 12.9407 6.02312 12.9407 6.21183C12.9407 6.40054 12.337 6.45523 12.337 6.32123ZM14.6034 6.17094C14.3839 5.84273 14.713 5.29572 15.0424 5.18632C15.3718 5.07692 15.9974 5.13162 16.0852 5.78803C16.1949 6.60854 14.823 6.49914 14.6034 6.17094Z" fill="white"/>
<path d="M5.09754 53.1911H9.11499C9.8614 53.1911 10.2346 53.6593 10.2346 54.5958V56.7094L11.6703 56.8144V58.3111H8.39053L9.43112 54.6089H8.98327C8.81642 55.7904 8.34663 56.7313 7.57387 57.4315C6.8099 58.1316 5.84396 58.4817 4.67604 58.4817C3.35007 58.4817 2.23923 58.0441 1.34354 57.1689C0.447846 56.2849 0 55.1603 0 53.795C0 52.3508 0.487362 51.1737 1.46209 50.2635C2.44559 49.3532 3.71449 48.8981 5.26878 48.8981C5.97128 48.8981 6.64305 49.0163 7.28409 49.2526C7.9339 49.4889 8.49591 49.8784 8.9701 50.421C9.44429 50.9636 9.70334 51.6069 9.74724 52.3508L8.02172 52.3115C7.96025 51.7601 7.66607 51.3225 7.1392 50.9986C6.6211 50.6661 5.98007 50.4998 5.21609 50.4998C4.14477 50.4998 3.3325 50.8017 2.77928 51.4056C2.23484 52.0008 1.96262 52.7928 1.96262 53.7818C1.96262 54.7271 2.27436 55.471 2.89783 56.0136C3.5213 56.5563 4.2721 56.8276 5.15023 56.8276C5.89664 56.8276 6.58598 56.635 7.21823 56.2499C7.85048 55.8648 8.2193 55.3178 8.32467 54.6089H5.09754V53.1911Z" fill="white"/>
<path d="M18.6787 48.9244C20.2682 48.9244 21.5898 49.3795 22.6435 50.2897C23.706 51.1999 24.2417 52.3465 24.2505 53.7293C24.2505 55.1034 23.7192 56.2455 22.6567 57.1558C21.6029 58.066 20.2769 58.5211 18.6787 58.5211C17.0893 58.5211 15.7634 58.066 14.7008 57.1558C13.6471 56.2455 13.1202 55.1034 13.1202 53.7293C13.1202 52.3815 13.6558 51.2437 14.7272 50.316C15.8073 49.3883 17.1245 48.9244 18.6787 48.9244ZM18.6787 57.1295C19.6974 57.1295 20.5448 56.8276 21.2209 56.2237C21.9059 55.6198 22.2483 54.8058 22.2483 53.7818C22.2483 52.7228 21.9322 51.8957 21.3 51.3006C20.6677 50.7054 19.8203 50.3991 18.7578 50.3816C17.7216 50.3641 16.861 50.6661 16.1761 51.2875C15.4999 51.9089 15.1618 52.7403 15.1618 53.7818C15.1618 54.8233 15.4955 55.6417 16.1629 56.2368C16.8303 56.8319 17.6689 57.1295 18.6787 57.1295Z" fill="white"/>
<path d="M31.2333 48.9244C32.8227 48.9244 34.1443 49.3795 35.198 50.2897C36.2606 51.1999 36.7962 52.3465 36.805 53.7293C36.805 55.1034 36.2737 56.2455 35.2112 57.1558C34.1574 58.066 32.8315 58.5211 31.2333 58.5211C29.6438 58.5211 28.3179 58.066 27.2553 57.1558C26.2016 56.2455 25.6747 55.1034 25.6747 53.7293C25.6747 52.3815 26.2104 51.2437 27.2817 50.316C28.3618 49.3883 29.679 48.9244 31.2333 48.9244ZM31.2333 57.1295C32.2519 57.1295 33.0993 56.8276 33.7754 56.2237C34.4604 55.6198 34.8029 54.8058 34.8029 53.7818C34.8029 52.7228 34.4867 51.8957 33.8545 51.3006C33.2222 50.7054 32.3748 50.3991 31.3123 50.3816C30.2761 50.3641 29.4155 50.6661 28.7306 51.2875C28.0544 51.9089 27.7164 52.7403 27.7164 53.7818C27.7164 54.8233 28.05 55.6417 28.7174 56.2368C29.3848 56.8319 30.2234 57.1295 31.2333 57.1295Z" fill="white"/>
<path d="M40.4816 51.8914C40.4816 52.1977 40.6265 52.4427 40.9163 52.6265C41.2061 52.8016 41.5793 52.9197 42.0359 52.981C42.5013 53.0423 43.015 53.0904 43.577 53.1254C44.139 53.1604 44.701 53.2173 45.263 53.2961C45.825 53.3661 46.3344 53.4755 46.791 53.6243C47.2564 53.7643 47.634 54.005 47.9238 54.3463C48.2135 54.6877 48.3584 55.1165 48.3584 55.6329C48.3584 56.5606 47.8799 57.2695 46.9227 57.7597C45.9655 58.2498 44.7405 58.4948 43.2477 58.4948C42.4135 58.4948 41.6803 58.4248 41.048 58.2848C40.4245 58.136 39.9372 57.9566 39.5859 57.7465C39.2347 57.5277 38.9493 57.2695 38.7297 56.972C38.5102 56.6744 38.3653 56.3987 38.2951 56.1449C38.2336 55.8823 38.2029 55.6066 38.2029 55.3178H40.3499C40.3411 55.9217 40.587 56.3681 41.0875 56.6569C41.5968 56.937 42.3125 57.077 43.2346 57.077C45.263 57.077 46.2773 56.6044 46.2773 55.6592C46.2773 55.3178 46.128 55.0553 45.8294 54.8715C45.5396 54.6789 45.162 54.5564 44.6966 54.5039C44.2312 54.4426 43.7131 54.3988 43.1423 54.3726C42.5803 54.3463 42.0183 54.3026 41.4563 54.2413C40.8943 54.1713 40.3806 54.0619 39.9152 53.9131C39.4498 53.7643 39.0678 53.5149 38.7693 53.1648C38.4795 52.806 38.3346 52.3465 38.3346 51.7863C38.3346 50.9024 38.7737 50.2153 39.6518 49.7252C40.5299 49.2351 41.7856 48.99 43.419 48.99C44.9118 48.99 46.0885 49.257 46.949 49.7908C47.8184 50.316 48.2443 51.1431 48.2267 52.2721H46.2114C46.2114 51.003 45.2806 50.3685 43.419 50.3685C41.4607 50.3685 40.4816 50.8761 40.4816 51.8914Z" fill="white"/>
<path d="M58 50.6048H52.0858V53.2173H57.5785V54.412H52.0858V56.8276H58V58.3111H50.2812V49.1213H58V50.6048Z" fill="white"/>
<path d="M22.3794 61.1995H23.7185C23.9673 61.1995 24.0917 61.3556 24.0917 61.6678V62.3723L24.5703 62.4073V62.9062H23.477L23.8239 61.6721H23.6746C23.619 62.066 23.4624 62.3796 23.2048 62.613C22.9501 62.8464 22.6282 62.9631 22.2389 62.9631C21.7969 62.9631 21.4266 62.8172 21.128 62.5255C20.8295 62.2308 20.6802 61.8559 20.6802 61.4008C20.6802 60.9195 20.8426 60.5271 21.1675 60.2237C21.4954 59.9203 21.9183 59.7686 22.4364 59.7686C22.6706 59.7686 22.8945 59.8079 23.1082 59.8867C23.3248 59.9655 23.5121 60.0953 23.6702 60.2762C23.8283 60.4571 23.9146 60.6715 23.9293 60.9195L23.3541 60.9063C23.3336 60.7225 23.2355 60.5767 23.0599 60.4687C22.8872 60.3579 22.6735 60.3024 22.4189 60.3024C22.0618 60.3024 21.791 60.4031 21.6066 60.6044C21.4251 60.8028 21.3344 61.0668 21.3344 61.3965C21.3344 61.7115 21.4383 61.9595 21.6461 62.1404C21.8539 62.3213 22.1042 62.4117 22.3969 62.4117C22.6457 62.4117 22.8755 62.3475 23.0863 62.2192C23.297 62.0908 23.4199 61.9085 23.4551 61.6721H22.3794V61.1995Z" fill="white"/>
<path d="M27.0645 60.3943C27.407 60.3943 27.6821 60.4877 27.8899 60.6744C28.0978 60.8611 28.1929 61.1674 28.1753 61.5934L27.5606 61.5978C27.5606 61.3585 27.5153 61.1835 27.4245 61.0726C27.3338 60.9588 27.1728 60.902 26.9416 60.902C26.763 60.902 26.5976 60.9355 26.4454 61.0026C26.2961 61.0668 26.1776 61.147 26.0898 61.2433C26.0049 61.3396 25.9376 61.4388 25.8878 61.5409C25.841 61.6401 25.8175 61.7305 25.8175 61.8122V62.9106H25.1589V60.4425H25.8175V60.8407L25.7209 61.1076H25.8702C26.1278 60.6321 26.5259 60.3943 27.0645 60.3943Z" fill="white"/>
<path d="M30.0302 60.3943C30.2205 60.3943 30.4049 60.422 30.5834 60.4775C30.7649 60.53 30.9303 60.6073 31.0796 60.7094C31.2318 60.8115 31.3533 60.9486 31.444 61.1208C31.5347 61.29 31.5801 61.4796 31.5801 61.6896C31.5801 62.0806 31.4264 62.3927 31.1191 62.6261C30.8117 62.8595 30.4415 62.9762 30.0082 62.9762C29.5721 62.9762 29.196 62.8581 28.8799 62.6218C28.5667 62.3854 28.4101 62.0747 28.4101 61.6896C28.4101 61.4212 28.492 61.1864 28.6559 60.9851C28.8228 60.7809 29.0262 60.6321 29.2662 60.5387C29.5092 60.4425 29.7638 60.3943 30.0302 60.3943ZM29.0643 61.6809C29.0643 61.9493 29.1521 62.1739 29.3277 62.3548C29.5033 62.5357 29.7272 62.6261 29.9995 62.6261C30.2688 62.6261 30.4898 62.5371 30.6625 62.3592C30.8352 62.1783 30.9215 61.9522 30.9215 61.6809C30.9215 61.4212 30.8395 61.2054 30.6756 61.0332C30.5146 60.8582 30.2936 60.7707 30.0126 60.7707C29.717 60.7707 29.4843 60.864 29.3145 61.0507C29.1477 61.2345 29.0643 61.4446 29.0643 61.6809Z" fill="white"/>
<path d="M33.2593 62.9543C33.1422 62.9543 33.031 62.9441 32.9256 62.9237C32.8232 62.9033 32.7193 62.8668 32.6139 62.8143C32.5114 62.7589 32.4236 62.6903 32.3505 62.6086C32.2773 62.524 32.2173 62.4146 32.1704 62.2804C32.1236 62.1433 32.1002 61.9887 32.1002 61.8166V60.4381H32.75V61.7115C32.75 61.8049 32.7559 61.888 32.7676 61.961C32.7822 62.0339 32.8085 62.1141 32.8466 62.2016C32.8876 62.2863 32.9564 62.3534 33.053 62.4029C33.1496 62.4525 33.2696 62.4773 33.413 62.4773C33.5769 62.4773 33.7291 62.4452 33.8696 62.3811C34.013 62.314 34.1272 62.2323 34.2121 62.136C34.2999 62.0397 34.3687 61.942 34.4184 61.8428C34.4682 61.7407 34.4931 61.6488 34.4931 61.5671V60.4381H35.1517V62.9062H34.4931V62.508L34.5853 62.241H34.4404C34.2033 62.7166 33.8096 62.9543 33.2593 62.9543Z" fill="white"/>
<path d="M37.7541 62.95C37.4527 62.95 37.1848 62.8756 36.9507 62.7268C36.7194 62.5751 36.5452 62.3825 36.4282 62.1491H36.2921L36.4984 62.5911V64.0002H35.8398V60.4425H36.4984V60.7269L36.3008 61.0201H36.4501C36.5584 60.848 36.737 60.7021 36.9858 60.5825C37.2375 60.4629 37.4995 60.4031 37.7717 60.4031C38.1405 60.4031 38.4523 60.5139 38.7069 60.7357C38.9616 60.9574 39.0889 61.2695 39.0889 61.6721C39.0889 62.0777 38.9586 62.3927 38.6981 62.6174C38.4376 62.8391 38.123 62.95 37.7541 62.95ZM37.5214 60.7838C37.2112 60.7838 36.9638 60.8597 36.7794 61.0114C36.595 61.1601 36.5028 61.3585 36.5028 61.6065C36.5028 61.8545 36.595 62.066 36.7794 62.241C36.9638 62.4132 37.217 62.4992 37.539 62.4992C37.8376 62.4992 38.06 62.4219 38.2064 62.2673C38.3557 62.1127 38.4303 61.9012 38.4303 61.6328C38.4303 61.3614 38.3542 61.1529 38.202 61.007C38.0498 60.8582 37.8229 60.7838 37.5214 60.7838Z" fill="white"/>
<path d="M43.6951 41.2593L44.2328 40.3066L44.7705 41.2593L45.7264 41.7952L44.7705 42.3311L44.2328 43.2838L43.6951 42.3311L42.7393 41.7952L43.6951 41.2593Z" fill="white"/>
<path d="M13.1341 41.2593L13.6718 40.3066L14.2095 41.2593L15.1653 41.7952L14.2095 42.3311L13.6718 43.2838L13.1341 42.3311L12.1782 41.7952L13.1341 41.2593Z" fill="white"/>
</svg>
