<svg width="40" height="40" viewBox="0 0 40 40" fill="none" xmlns="http://www.w3.org/2000/svg">
<rect width="40" height="40" rx="18" fill="#202020"/>
<g clip-path="url(#clip0_3502_30)">
<path d="M15.5996 9.44949C14.4691 9.50283 13.6971 9.68324 13.0222 9.94844C12.3237 10.2207 11.7316 10.5859 11.1426 11.1771C10.5535 11.7683 10.1908 12.3607 9.9205 13.0603C9.65892 13.7367 9.48169 14.5093 9.43175 15.6405C9.38182 16.7716 9.37077 17.1352 9.37629 20.0205C9.38182 22.9058 9.39457 23.2675 9.44939 24.401C9.50337 25.5313 9.68314 26.3031 9.94834 26.9782C10.221 27.6767 10.5858 28.2685 11.1772 28.8578C11.7686 29.447 12.3606 29.8089 13.0619 30.0796C13.7376 30.3408 14.5105 30.5189 15.6414 30.5684C16.7724 30.6179 17.1364 30.6294 20.0208 30.6238C22.9053 30.6183 23.2685 30.6056 24.4017 30.5518C25.535 30.498 26.3028 30.317 26.9781 30.0531C27.6766 29.7798 28.2688 29.4156 28.8577 28.824C29.4465 28.2324 29.809 27.6395 30.0791 26.9395C30.3409 26.2638 30.5188 25.4909 30.5679 24.3608C30.6174 23.2267 30.6291 22.8646 30.6235 19.9797C30.618 17.0948 30.605 16.7331 30.5513 15.6001C30.4975 14.467 30.3175 13.6976 30.0525 13.022C29.7795 12.3236 29.415 11.7322 28.8239 11.1425C28.2327 10.5528 27.6394 10.1905 26.9396 9.92103C26.2635 9.65944 25.491 9.48115 24.3601 9.43228C23.2292 9.3834 22.8652 9.37087 19.9796 9.37639C17.0941 9.38192 16.7328 9.39424 15.5996 9.44949ZM15.7237 28.6569C14.6877 28.6119 14.1252 28.4398 13.7504 28.2957C13.254 28.1044 12.9004 27.8732 12.5268 27.5033C12.1532 27.1333 11.9237 26.7784 11.7299 26.2831C11.5844 25.9083 11.4091 25.3464 11.3606 24.3105C11.3079 23.1908 11.2969 22.8546 11.2907 20.018C11.2845 17.1813 11.2954 16.8456 11.3445 15.7255C11.3887 14.6904 11.5619 14.1273 11.7057 13.7526C11.897 13.2556 12.1273 12.9026 12.4981 12.5293C12.8689 12.1559 13.2228 11.926 13.7185 11.7322C14.0929 11.586 14.6548 11.4121 15.6903 11.3628C16.8108 11.3097 17.1466 11.2991 19.9828 11.2929C22.819 11.2868 23.1556 11.2974 24.2766 11.3467C25.3117 11.3917 25.875 11.5632 26.2492 11.7079C26.7458 11.8992 27.0992 12.1289 27.4726 12.5004C27.8459 12.8718 28.0761 13.2243 28.2699 13.7212C28.4163 14.0945 28.5901 14.6562 28.639 15.6923C28.6923 16.8128 28.7044 17.1488 28.7095 19.9848C28.7146 22.8208 28.7047 23.1577 28.6556 24.2773C28.6103 25.3133 28.4386 25.876 28.2943 26.2512C28.1031 26.7474 27.8725 27.1012 27.5015 27.4744C27.1305 27.8475 26.7771 28.0775 26.2811 28.2713C25.9071 28.4172 25.3446 28.5915 24.3099 28.6408C23.1894 28.6935 22.8537 28.7045 20.0164 28.7107C17.1791 28.7169 16.8444 28.7054 15.7239 28.6569M24.3854 14.3215C24.3858 14.5737 24.461 14.8201 24.6015 15.0295C24.7419 15.239 24.9414 15.4021 25.1745 15.4982C25.4077 15.5943 25.6641 15.619 25.9114 15.5694C26.1586 15.5198 26.3856 15.3979 26.5636 15.2193C26.7416 15.0406 26.8626 14.8132 26.9113 14.5657C26.9601 14.3183 26.9343 14.062 26.8374 13.8292C26.7404 13.5964 26.5766 13.3975 26.3667 13.2578C26.1567 13.1181 25.91 13.0439 25.6578 13.0444C25.3198 13.045 24.9958 13.18 24.7572 13.4194C24.5185 13.6589 24.3848 13.9834 24.3854 14.3215ZM14.5445 20.0107C14.5505 23.024 16.9976 25.4612 20.0102 25.4554C23.0228 25.4497 25.4617 23.0027 25.456 19.9895C25.4502 16.9762 23.0024 14.5384 19.9894 14.5444C16.9764 14.5503 14.5388 16.9979 14.5445 20.0107ZM16.4583 20.0069C16.4569 19.3064 16.6633 18.6213 17.0513 18.0381C17.4393 17.4549 17.9915 16.9998 18.6382 16.7305C19.2848 16.4611 19.9968 16.3896 20.6841 16.5249C21.3714 16.6602 22.0031 16.9962 22.4994 17.4906C22.9957 17.9849 23.3343 18.6153 23.4723 19.3021C23.6103 19.9888 23.5416 20.7011 23.2748 21.3488C23.008 21.9965 22.5552 22.5505 21.9735 22.9409C21.3919 23.3312 20.7075 23.5403 20.007 23.5416C19.5419 23.5426 19.0811 23.452 18.6511 23.2748C18.221 23.0977 17.83 22.8376 17.5005 22.5094C17.1709 22.1811 16.9093 21.7912 16.7304 21.3618C16.5516 20.9324 16.4591 20.472 16.4583 20.0069Z" fill="white"/>
</g>
<defs>
<clipPath id="clip0_3502_30">
<rect width="21.25" height="21.25" fill="white" transform="translate(9.375 9.375)"/>
</clipPath>
</defs>
</svg>
