<svg width="48" height="48" viewBox="0 0 48 48" fill="none" xmlns="http://www.w3.org/2000/svg">
<g clip-path="url(#clip0_3510_34)" filter="url(#filter0_d_3510_34)">
<rect x="4" width="40" height="40" rx="18" fill="#202020"/>
<g clip-path="url(#clip1_3510_34)">
<path d="M32.8867 15.3993C32.9003 15.5962 32.9003 15.7931 32.9003 15.9918C32.9003 22.0459 28.2914 29.0281 19.8639 29.0281V29.0245C17.3744 29.0281 14.9366 28.315 12.8408 26.9705C13.2028 27.014 13.5666 27.0358 13.9313 27.0367C15.9944 27.0385 17.9986 26.3463 19.6217 25.0716C17.6611 25.0344 15.9418 23.7561 15.3412 21.8898C16.028 22.0223 16.7357 21.9951 17.4098 21.8109C15.2723 21.3791 13.7345 19.501 13.7345 17.32C13.7345 17.3 13.7345 17.281 13.7345 17.2619C14.3714 17.6167 15.0845 17.8135 15.8139 17.8353C13.8007 16.4898 13.1801 13.8116 14.3959 11.7177C16.7221 14.5801 20.1542 16.3202 23.8386 16.5044C23.4693 14.913 23.9738 13.2455 25.1641 12.1268C27.0095 10.3922 29.9118 10.4811 31.6465 12.3255C32.6726 12.1232 33.656 11.7467 34.556 11.2132C34.214 12.2738 33.4982 13.1747 32.5419 13.7472C33.4501 13.6401 34.3374 13.397 35.173 13.0259C34.5579 13.9477 33.7831 14.7506 32.8867 15.3993Z" fill="white"/>
</g>
</g>
<defs>
<filter id="filter0_d_3510_34" x="0" y="0" width="48" height="48" filterUnits="userSpaceOnUse" color-interpolation-filters="sRGB">
<feFlood flood-opacity="0" result="BackgroundImageFix"/>
<feColorMatrix in="SourceAlpha" type="matrix" values="0 0 0 0 0 0 0 0 0 0 0 0 0 0 0 0 0 0 127 0" result="hardAlpha"/>
<feOffset dy="4"/>
<feGaussianBlur stdDeviation="2"/>
<feComposite in2="hardAlpha" operator="out"/>
<feColorMatrix type="matrix" values="0 0 0 0 0 0 0 0 0 0 0 0 0 0 0 0 0 0 0.25 0"/>
<feBlend mode="normal" in2="BackgroundImageFix" result="effect1_dropShadow_3510_34"/>
<feBlend mode="normal" in="SourceGraphic" in2="effect1_dropShadow_3510_34" result="shape"/>
</filter>
<clipPath id="clip0_3510_34">
<rect width="40" height="40" fill="white" transform="translate(4)"/>
</clipPath>
<clipPath id="clip1_3510_34">
<rect width="22.5" height="22.5" fill="white" transform="translate(12.75 8.75)"/>
</clipPath>
</defs>
</svg>
